<?xml version="1.0" encoding="UTF-8"?>
<svg id="Warstwa_2" data-name="Warstwa 2" xmlns="http://www.w3.org/2000/svg" viewBox="0 0 869.04 1108.15">
  <g id="Warstwa_1-2" data-name="Warstwa 1">
    <g>
      <g>
        <rect x="739.68" y="242.73" width="67.93" height="191.87" rx="23.35" ry="23.35" transform="translate(517.48 -466.07) rotate(48.7)"/>
        <path d="M726.23,428.42c-9.82,0-19.59-4.06-26.57-12l-12.65-14.41c-6.21-7.07-9.3-16.16-8.69-25.6.61-9.44,4.84-18.06,11.91-24.27l107.52-94.45c14.64-12.86,37.01-11.41,49.87,3.23l12.65,14.41c6.21,7.07,9.3,16.16,8.69,25.6-.61,9.44-4.84,18.06-11.91,24.27l-107.52,94.45c-6.7,5.88-15.02,8.77-23.3,8.77ZM821.04,270.85c-3.27,0-6.37,1.16-8.82,3.31l-107.52,94.45c-5.56,4.88-6.11,13.37-1.22,18.93l12.66,14.41c4.88,5.56,13.37,6.11,18.93,1.22l107.52-94.45c2.67-2.35,4.27-5.62,4.5-9.21.23-3.59-.93-7.05-3.28-9.72l-12.66-14.41c-2.35-2.67-5.62-4.27-9.21-4.5-.3-.02-.6-.03-.9-.03Z"/>
      </g>
      <g>
        <path d="M569.58,11.16c-3.12-3.72-63.91,131.95-36.07,259.81,12.9,59.27,75.54,87.2,89.03,92.44,25.39,9.87,54.4,2.33,71.65-18.76,8.35-10.21,43.8-46.75,29.36-120.4C697.05,89.07,570.53,6.4,569.58,11.16Z"/>
        <path d="M694.2,344.65c-17.25,21.09-46.26,28.63-71.65,18.76-10.21-3.97-48.56-20.92-72.2-54.62,12.93,8.12,24.1,12.93,28.94,14.8,25.39,9.87,54.39,2.33,71.64-18.76,8.36-10.21,43.8-46.74,29.36-120.4-12.99-66.28-50.02-119.93-84.53-156.85,38.74,30.19,108.83,100.01,127.78,196.67,14.44,73.66-21,110.19-29.35,120.4Z"/>
        <path d="M645.54,378.71c-9.03,0-18.16-1.65-26.97-5.08-13.49-5.24-81.48-34.71-95.77-100.32-14.72-67.62-5.07-135.51,5.61-180.56,6.52-27.48,13.85-48.55,18.85-61.38,10.42-26.77,14.33-28.68,17.18-30.08.68-.33,1.37-.59,2.07-.78,1.08-.33,2.21-.54,3.43-.51,2.33,0,7.79,0,30.16,17.09,11.23,8.57,28.64,23.13,47.79,43.76,31.68,34.12,72.38,89.8,86.4,161.29,14.64,74.66-19.02,114.51-30.08,127.6-.59.69-1.11,1.31-1.55,1.85-14.35,17.55-35.43,27.12-57.14,27.12ZM571.37,30.37c-6.08,14.14-15.48,39.89-22.99,73.39-9.27,41.34-17.52,103.49-4.15,164.88,12.15,55.82,75.14,81.78,82.29,84.55,21.12,8.21,44.91,1.99,59.19-15.48.5-.61,1.1-1.32,1.77-2.12,10.37-12.28,37.93-44.9,25.31-109.24-12.62-64.39-49-115.26-77.29-146.6-23.18-25.68-45.35-43.28-58.02-52.02l-3.78-2.68-2.33,5.31Z"/>
        <path d="M605.83,174.53s18.07,133.52,35.16,151.06c17.1,17.54,20.68-22.91,20.68-22.91,0,0-50.83-98.08-55.84-128.15Z"/>
      </g>
      <g>
        <g>
          <path d="M629.93,946.75c120.24-124.21,161.56-290.26,116.84-419.07-7.92-22.81-9.45-47.24-4.97-70.97,5.57-29.54-4.34-61.15-28.76-82.17-21.73-18.7-50.05-24.77-76.02-18.89-23.17,5.24-47.26,4.67-69.92-2.46-130.33-41-295.42,5.62-415.93,130.12C30.93,607.51-10.39,773.56,34.33,902.37c7.92,22.81,9.45,47.24,4.97,70.97-5.57,29.54,4.34,61.15,28.76,82.17,21.73,18.7,50.05,24.77,76.02,18.89,23.17-5.24,47.26-4.67,69.92,2.46,130.33,41,295.42-5.62,415.93-130.12Z"/>
          <path d="M629.93,946.75c-120.51,124.49-285.6,171.11-415.94,130.11-22.66-7.13-46.74-7.71-69.91-2.46-25.97,5.88-54.29-.2-76.02-18.89-16.96-14.59-26.91-34.27-29.55-54.81,19.02,11.09,42.13,13.19,64.08,7.02,23.41-6.59,47.39-7.4,69.58-1.58,127.59,33.52,294.89-22.67,422.24-154.23,95.24-98.38,147.62-217.73,152.24-324.54.03.1.07.21.1.31,44.73,128.8,3.4,294.85-116.84,419.07Z"/>
          <path d="M311.55,1108.15c-35.52,0-70.01-5.11-102.56-15.35-19.3-6.07-40.47-6.8-61.22-2.1-31.94,7.22-65.8-1.19-90.6-22.52-27.99-24.08-41.13-61.6-34.28-97.92,3.99-21.16,2.49-42.74-4.34-62.4-23.38-67.33-24.69-143.78-3.79-221.1,21.24-78.56,64.25-152.93,124.4-215.07,60.29-62.28,133.4-107.75,211.42-131.48,76.8-23.36,153.4-24.38,221.52-2.95,19.3,6.07,40.47,6.8,61.22,2.11,31.93-7.23,65.8,1.19,90.6,22.52,27.99,24.08,41.13,61.6,34.28,97.92-3.99,21.16-2.49,42.74,4.34,62.4,23.38,67.33,24.69,143.78,3.79,221.1-21.23,78.56-64.26,152.94-124.4,215.07h0c-60.29,62.28-133.4,107.75-211.42,131.48-40.1,12.2-80.15,18.31-118.96,18.31ZM174.85,1054.23c15.09,0,29.99,2.24,44.17,6.7,129.05,40.6,285.64-8.78,398.92-125.8h0c112.95-116.68,157.33-274.47,113.06-401.97-8.73-25.16-10.67-52.67-5.61-79.55,4.64-24.64-4.26-50.08-23.24-66.41-17.06-14.68-39.45-20.24-61.44-15.27-26.5,6-53.69,5.02-78.62-2.82-129.05-40.6-285.64,8.78-398.92,125.8C50.22,611.6,5.84,769.38,50.11,896.89c8.74,25.16,10.67,52.67,5.61,79.55-4.64,24.64,4.26,50.08,23.24,66.41,17.06,14.68,39.45,20.24,61.44,15.27,11.43-2.59,23-3.88,34.45-3.88Z"/>
        </g>
        <circle cx="528.36" cy="918.37" r="37.23"/>
        <circle cx="633.36" cy="762.78" r="37.23"/>
        <circle cx="345.08" cy="1021.46" r="37.23"/>
        <circle cx="158.45" cy="838.19" r="24.84" transform="translate(-693.85 802.88) rotate(-76.92)"/>
        <circle cx="390.55" cy="838.19" r="24.34" transform="translate(-514.95 1025.72) rotate(-76.72)"/>
        <circle cx="616.65" cy="551.71" r="24.34" transform="translate(-209.5 597.63) rotate(-45)"/>
        <path d="M168.47,624.8h-.02c-9-3.97-12.68-14.82-7.89-23.41,8.24-14.76,22.86-38.07,45.03-63.77,31.62-36.63,85-84.9,163.42-113.53,8.94-3.26,18.79,1.61,21.65,10.69h0c2.69,8.53-1.83,17.64-10.23,20.71-71.22,26.02-119.87,69.81-148.75,103.04-20.8,23.94-34.47,45.81-41.93,59.14-4.2,7.51-13.41,10.59-21.29,7.13Z"/>
        <path d="M420.51,426.08h0c-2.29-9.37,3.79-18.74,13.28-20.42,7.09-1.26,16.1-2.67,26.57-3.93,9.4-1.13,17.87,5.74,18.67,15.17h0c.76,8.97-5.73,16.93-14.66,18-9.76,1.17-18.16,2.5-24.71,3.66-8.68,1.54-17.05-3.92-19.15-12.48Z"/>
      </g>
    </g>
  </g>
</svg>