<?xml version="1.0" encoding="UTF-8"?>
<svg id="Warstwa_2" data-name="Warstwa 2" xmlns="http://www.w3.org/2000/svg" viewBox="0 0 781.1 786.26">
  <g id="Warstwa_1-2" data-name="Warstwa 1">
    <g>
      <g>
        <path d="M629.93,624.86c120.24-124.21,161.56-290.26,116.84-419.07-7.92-22.81-9.45-47.24-4.97-70.97,5.57-29.54-4.34-61.15-28.76-82.17-21.73-18.7-50.05-24.77-76.02-18.89-23.17,5.24-47.26,4.67-69.92-2.46-130.33-41-295.42,5.62-415.93,130.12C30.93,285.62-10.39,451.67,34.33,580.48c7.92,22.81,9.45,47.24,4.97,70.97-5.57,29.54,4.34,61.15,28.76,82.17,21.73,18.7,50.05,24.77,76.02,18.89,23.17-5.24,47.26-4.67,69.92,2.46,130.33,41,295.42-5.62,415.93-130.12Z"/>
        <path d="M629.93,624.86c-120.51,124.49-285.6,171.11-415.94,130.11-22.66-7.13-46.74-7.71-69.91-2.46-25.97,5.88-54.29-.2-76.02-18.89-16.96-14.59-26.91-34.27-29.55-54.81,19.02,11.09,42.13,13.19,64.08,7.02,23.41-6.59,47.39-7.4,69.58-1.58,127.59,33.52,294.89-22.67,422.24-154.23,95.24-98.38,147.62-217.73,152.24-324.54.03.1.07.21.1.31,44.73,128.8,3.4,294.85-116.84,419.07Z"/>
        <path d="M311.55,786.26c-35.52,0-70.01-5.11-102.56-15.35-19.3-6.07-40.47-6.8-61.22-2.1-31.94,7.22-65.8-1.19-90.6-22.52-27.99-24.08-41.13-61.6-34.28-97.92,3.99-21.16,2.49-42.74-4.34-62.4-23.38-67.33-24.69-143.78-3.79-221.1,21.24-78.56,64.25-152.93,124.4-215.07,60.29-62.28,133.4-107.75,211.42-131.48,76.8-23.36,153.4-24.38,221.52-2.95,19.3,6.07,40.47,6.8,61.22,2.11,31.93-7.23,65.8,1.19,90.6,22.52,27.99,24.08,41.13,61.6,34.28,97.92-3.99,21.16-2.49,42.74,4.34,62.4,23.38,67.33,24.69,143.78,3.79,221.1-21.23,78.56-64.26,152.94-124.4,215.07h0c-60.29,62.28-133.4,107.75-211.42,131.48-40.1,12.2-80.15,18.31-118.96,18.31ZM174.85,732.34c15.09,0,29.99,2.24,44.17,6.7,129.05,40.6,285.64-8.78,398.92-125.8h0c112.95-116.68,157.33-274.47,113.06-401.97-8.73-25.16-10.67-52.67-5.61-79.55,4.64-24.64-4.26-50.08-23.24-66.41-17.06-14.68-39.45-20.24-61.44-15.27-26.5,6-53.69,5.02-78.62-2.82-129.05-40.6-285.64,8.78-398.92,125.8C50.22,289.71,5.84,447.49,50.11,575c8.74,25.16,10.67,52.67,5.61,79.55-4.64,24.64,4.26,50.08,23.24,66.41,17.06,14.68,39.45,20.24,61.44,15.27,11.43-2.59,23-3.88,34.45-3.88Z"/>
      </g>
      <circle cx="528.36" cy="596.48" r="37.23"/>
      <circle cx="633.36" cy="440.89" r="37.23"/>
      <circle cx="345.08" cy="699.57" r="37.23"/>
      <circle cx="158.45" cy="516.3" r="24.84" transform="translate(-380.31 553.82) rotate(-76.92)"/>
      <circle cx="390.55" cy="516.3" r="24.34" transform="translate(-201.67 777.78) rotate(-76.72)"/>
      <circle cx="616.65" cy="229.82" r="24.34" transform="translate(18.11 503.35) rotate(-45)"/>
      <path d="M168.47,302.91h-.02c-9-3.97-12.68-14.82-7.89-23.41,8.24-14.76,22.86-38.07,45.03-63.77,31.62-36.63,85-84.9,163.42-113.53,8.94-3.26,18.79,1.61,21.65,10.69h0c2.69,8.53-1.83,17.64-10.23,20.71-71.22,26.02-119.87,69.81-148.75,103.04-20.8,23.94-34.47,45.81-41.93,59.14-4.2,7.51-13.41,10.59-21.29,7.13Z"/>
      <path d="M420.51,104.19h0c-2.29-9.37,3.79-18.74,13.28-20.42,7.09-1.26,16.1-2.67,26.57-3.93,9.4-1.13,17.87,5.74,18.67,15.17h0c.76,8.97-5.73,16.93-14.66,18-9.76,1.17-18.16,2.5-24.71,3.66-8.68,1.54-17.05-3.92-19.15-12.48Z"/>
    </g>
  </g>
</svg>